<?xml version="1.0" encoding="UTF-8" standalone="no"?>
<!-- Created with Inkscape (http://www.inkscape.org/) -->

<svg
   xmlns:dc="http://purl.org/dc/elements/1.1/"
   xmlns:cc="http://creativecommons.org/ns#"
   xmlns:rdf="http://www.w3.org/1999/02/22-rdf-syntax-ns#"
   xmlns:svg="http://www.w3.org/2000/svg"
   xmlns="http://www.w3.org/2000/svg"
   xmlns:sodipodi="http://sodipodi.sourceforge.net/DTD/sodipodi-0.dtd"
   xmlns:inkscape="http://www.inkscape.org/namespaces/inkscape"
   width="325"
   height="167"
   viewBox="0 0 85.989579 44.185418"
   version="1.1"
   id="svg8"
   sodipodi:docname="restaurant-finder-logo.svg"
   inkscape:version="0.92.5 (2060ec1f9f, 2020-04-08)">
  <defs
     id="defs2">
    <inkscape:path-effect
       effect="bspline"
       id="path-effect830"
       is_visible="true"
       weight="33.333333"
       steps="2"
       helper_size="0"
       apply_no_weight="true"
       apply_with_weight="true"
       only_selected="false" />
    <inkscape:path-effect
       effect="bspline"
       id="path-effect830-5"
       is_visible="true"
       weight="33.333333"
       steps="2"
       helper_size="0"
       apply_no_weight="true"
       apply_with_weight="true"
       only_selected="false" />
  </defs>
  <sodipodi:namedview
     id="base"
     pagecolor="#ffffff"
     bordercolor="#666666"
     borderopacity="1.0"
     inkscape:pageopacity="0.0"
     inkscape:pageshadow="2"
     inkscape:zoom="1.4"
     inkscape:cx="192.96263"
     inkscape:cy="87.478102"
     inkscape:document-units="px"
     inkscape:current-layer="layer1"
     showgrid="false"
     units="px"
     inkscape:showpageshadow="false"
     showguides="true"
     inkscape:guide-bbox="true"
     objecttolerance="1"
     gridtolerance="1"
     guidetolerance="1"
     inkscape:window-width="1366"
     inkscape:window-height="712"
     inkscape:window-x="0"
     inkscape:window-y="0"
     inkscape:window-maximized="1" />
  <metadata
     id="metadata5">
    <rdf:RDF>
      <cc:Work
         rdf:about="">
        <dc:format>image/svg+xml</dc:format>
        <dc:type
           rdf:resource="http://purl.org/dc/dcmitype/StillImage" />
        <dc:title></dc:title>
      </cc:Work>
    </rdf:RDF>
  </metadata>
  <g
     inkscape:label="Camada 1"
     inkscape:groupmode="layer"
     id="layer1"
     transform="translate(0,-252.81457)">
    <g
       id="g894"
       transform="translate(-24.190476,5.8586308)">
      <text
         id="text12"
         y="252.77678"
         x="29.671131"
         style="font-style:normal;font-variant:normal;font-weight:normal;font-stretch:normal;font-size:10.58333302px;line-height:1.25;font-family:Helvetica;-inkscape-font-specification:Helvetica;letter-spacing:0px;word-spacing:0px;fill:#000000;fill-opacity:1;stroke:none;stroke-width:0.26458332"
         xml:space="preserve"><tspan
           style="font-style:normal;font-variant:normal;font-weight:normal;font-stretch:normal;font-size:7.76111078px;font-family:'Helvetica Compressed';-inkscape-font-specification:'Helvetica Compressed';fill:#705e78;fill-opacity:1;stroke-width:0.26458332"
           y="252.77678"
           x="29.671131"
           id="tspan10"
           sodipodi:role="line">Restaurant</tspan></text>
      <text
         id="text824"
         y="290.95236"
         x="25.324406"
         style="font-style:normal;font-variant:normal;font-weight:normal;font-stretch:normal;font-size:25.39999962px;line-height:1.25;font-family:Z003;-inkscape-font-specification:Z003;letter-spacing:0px;word-spacing:0px;fill:#000000;fill-opacity:1;stroke:none;stroke-width:0.26458332"
         xml:space="preserve"><tspan
           style="font-style:normal;font-variant:normal;font-weight:normal;font-stretch:normal;font-size:43.03888702px;font-family:'Austie Bost You Wear Flowers Ho';-inkscape-font-specification:'Austie Bost You Wear Flowers Ho';fill:#705e78;fill-opacity:1;stroke-width:0.26458332"
           y="290.95236"
           x="25.324406"
           id="tspan822"
           sodipodi:role="line">Finder</tspan></text>
      <path
         transform="matrix(0.26458333,0,0,0.26458333,0,217.62499)"
         id="path828-1"
         d="m 366.64648,118.56836 c -5.10354,-0.1473 -10.11265,0.18947 -14.74218,1.03125 -9.25906,1.68351 -17.00409,5.38805 -23.25782,8.71094 -6.25373,3.32288 -11.01704,6.26521 -14.2246,8.10547 -3.20757,1.84021 -4.85896,2.57807 -37.67579,2.82812 -32.81683,0.25021 -96.81204,0.011 -129.0664,-0.0703 -32.25438,-0.0816 -32.77438,-0.007 -33.28711,0.17187 -0.51277,0.1784 -1.02023,0.46049 -1.4336,0.79883 -0.41336,0.33827 -0.74711,0.74767 -0.96289,1.16406 -0.21581,0.41643 -0.31931,0.84881 -0.37109,1.1836 -0.0518,0.33486 -0.0512,0.57186 -0.0508,0.6914 4.9e-4,0.11944 -0.004,0.65577 -0.004,0.77539 -5.3e-4,0.11944 -0.001,0.35647 0.0508,0.69141 0.0518,0.33487 0.15529,0.76724 0.3711,1.18359 0.21581,0.41636 0.54948,0.82572 0.96289,1.16407 0.4134,0.33826 0.91887,0.62043 1.43164,0.79883 0.51273,0.17839 1.03469,0.25351 33.28906,0.17187 32.25435,-0.0816 96.24941,-0.32046 128.94727,-0.11523 32.69786,0.2056 34.10837,0.85487 37.3164,2.69531 3.20803,1.84048 8.21119,4.87267 14.58399,8.24023 6.37279,3.36752 14.11789,7.07039 23.37695,8.75391 9.25905,1.68355 20.03423,1.34662 30.05078,-0.8418 10.01656,-2.18838 19.27962,-6.2294 25.22656,-10.38476 5.94694,-4.15541 8.58366,-8.42813 8.58399,-12.7168 3.3e-4,-4.28867 -2.63429,-8.59012 -8.58008,-12.75977 -5.9458,-4.16968 -15.20806,-8.21005 -25.22461,-10.39843 -5.00828,-1.09421 -10.207,-1.72575 -15.31055,-1.87305 z m -250.35351,22.11133 a 3,3 0 0 1 0.30078,0.0137 3,3 0 0 1 0.29687,0.0449 3,3 0 0 1 0.28907,0.0742 3,3 0 0 1 0.2832,0.10352 3,3 0 0 1 0.26953,0.13086 3,3 0 0 1 0.25586,0.15624 3,3 0 0 1 0.23828,0.18165 3,3 0 0 1 0.21875,0.20312 3,3 0 0 1 0.19922,0.22656 3,3 0 0 1 0.17383,0.24414 3,3 0 0 1 0.14844,0.25977 3,3 0 0 1 0.12304,0.27344 3,3 0 0 1 0.0937,0.28515 3,3 0 0 1 0.0664,0.29297 3,3 0 0 1 0.0371,0.29688 3,3 0 0 1 0.006,0.21289 3,3 0 0 1 -0.0137,0.29883 3,3 0 0 1 -0.0449,0.29687 3,3 0 0 1 -0.0742,0.29102 3,3 0 0 1 -0.10352,0.28125 3,3 0 0 1 -0.13086,0.26953 3,3 0 0 1 -0.15625,0.25586 3,3 0 0 1 -0.18164,0.23828 3,3 0 0 1 -0.20312,0.21875 3,3 0 0 1 -0.22657,0.19922 3,3 0 0 1 -0.24414,0.17382 3,3 0 0 1 -0.25976,0.14844 3,3 0 0 1 -0.27344,0.12305 3,3 0 0 1 -0.28516,0.0957 3,3 0 0 1 -0.29101,0.0645 3,3 0 0 1 -0.29883,0.0371 3,3 0 0 1 -0.21289,0.008 3,3 0 0 1 -0.29883,-0.0156 3,3 0 0 1 -0.29687,-0.0449 3,3 0 0 1 -0.28907,-0.0742 3,3 0 0 1 -0.2832,-0.10351 3,3 0 0 1 -0.26953,-0.12891 3,3 0 0 1 -0.25586,-0.1582 3,3 0 0 1 -0.23828,-0.18164 3,3 0 0 1 -0.21875,-0.20313 3,3 0 0 1 -0.19922,-0.22656 3,3 0 0 1 -0.17383,-0.24414 3,3 0 0 1 -0.14844,-0.25977 3,3 0 0 1 -0.12304,-0.27344 3,3 0 0 1 -0.0957,-0.28515 3,3 0 0 1 -0.0644,-0.29102 3,3 0 0 1 -0.0371,-0.29883 3,3 0 0 1 -0.008,-0.21093 3,3 0 0 1 0.0156,-0.30078 3,3 0 0 1 0.0449,-0.29688 3,3 0 0 1 0.0742,-0.28906 3,3 0 0 1 0.10352,-0.2832 3,3 0 0 1 0.12891,-0.26954 3,3 0 0 1 0.1582,-0.25585 3,3 0 0 1 0.18164,-0.23829 3,3 0 0 1 0.20312,-0.21875 3,3 0 0 1 0.22657,-0.19922 3,3 0 0 1 0.24414,-0.17382 3,3 0 0 1 0.25976,-0.14844 3,3 0 0 1 0.27344,-0.12305 3,3 0 0 1 0.28516,-0.0937 3,3 0 0 1 0.29101,-0.0664 3,3 0 0 1 0.29883,-0.0371 3,3 0 0 1 0.21094,-0.006 z"
         style="fill:#fea443;fill-opacity:1;stroke:none;stroke-width:3;stroke-linecap:butt;stroke-linejoin:miter;stroke-miterlimit:4;stroke-dasharray:none;stroke-opacity:1"
         inkscape:connector-curvature="0" />
    </g>
    <path
       style="fill:#000000;fill-opacity:0.08733624;stroke:none;stroke-width:0.24756105;stroke-linecap:round;stroke-linejoin:round;stroke-miterlimit:4;stroke-dasharray:none;stroke-dashoffset:0;stroke-opacity:1"
       id="path896"
       sodipodi:type="arc"
       sodipodi:cx="72.99057"
       sodipodi:cy="261.39041"
       sodipodi:rx="8.5786123"
       sodipodi:ry="4.2053604"
       sodipodi:start="6.2700625"
       sodipodi:end="6.2603564"
       d="m 81.568444,261.33523 a 8.5786123,4.2053604 0 0 1 -8.444488,4.26003 8.5786123,4.2053604 0 0 1 -8.710612,-4.12926 8.5786123,4.2053604 0 0 1 8.402214,-4.28007 8.5786123,4.2053604 0 0 1 8.751389,4.10849"
       sodipodi:open="true" />
  </g>
</svg>
